<svg width="22" height="20" viewBox="0 0 22 20" fill="none" xmlns="http://www.w3.org/2000/svg">
<path d="M19.9375 9.75H2.0625C0.902344 9.75 0 10.6953 0 11.8125C0 12.9727 0.902344 13.875 2.0625 13.875H19.9375C21.0547 13.875 22 12.9727 22 11.8125C22 10.6953 21.0547 9.75 19.9375 9.75ZM20.625 15.25H1.375C0.988281 15.25 0.6875 15.5938 0.6875 15.9375V16.625C0.6875 18.1719 1.89062 19.375 3.4375 19.375H18.5625C20.0664 19.375 21.3125 18.1719 21.3125 16.625V15.9375C21.3125 15.5938 20.9688 15.25 20.625 15.25ZM2.49219 8.375H19.4648C20.9258 8.375 21.7852 6.52734 20.9688 5.15234C19.25 2.35938 15.4258 0.167969 11 0.125C6.53125 0.167969 2.75 2.35938 0.988281 5.15234C0.171875 6.52734 1.03125 8.375 2.49219 8.375ZM16.5 3.5625C16.8438 3.5625 17.1875 3.90625 17.1875 4.25C17.1875 4.63672 16.8438 4.9375 16.5 4.9375C16.1133 4.9375 15.8125 4.63672 15.8125 4.25C15.8125 3.90625 16.1133 3.5625 16.5 3.5625ZM11 2.1875C11.3438 2.1875 11.6875 2.53125 11.6875 2.875C11.6875 3.26172 11.3438 3.5625 11 3.5625C10.6133 3.5625 10.3125 3.26172 10.3125 2.875C10.3125 2.53125 10.6133 2.1875 11 2.1875ZM5.5 3.5625C5.84375 3.5625 6.1875 3.90625 6.1875 4.25C6.1875 4.63672 5.84375 4.9375 5.5 4.9375C5.11328 4.9375 4.8125 4.63672 4.8125 4.25C4.8125 3.90625 5.11328 3.5625 5.5 3.5625Z" fill="#222222"/>
</svg>
