<svg width="21" height="20" viewBox="0 0 21 20" fill="none" xmlns="http://www.w3.org/2000/svg">
<path d="M7.51636 19.4445C8.31027 19.4445 8.95386 18.8009 8.95386 18.007C8.95386 17.213 8.31027 16.5695 7.51636 16.5695C6.72245 16.5695 6.07886 17.213 6.07886 18.007C6.07886 18.8009 6.72245 19.4445 7.51636 19.4445Z" fill="#3382DC"/>
<path d="M16.25 19.4445C17.0439 19.4445 17.6875 18.8009 17.6875 18.007C17.6875 17.213 17.0439 16.5695 16.25 16.5695C15.4561 16.5695 14.8125 17.213 14.8125 18.007C14.8125 18.8009 15.4561 19.4445 16.25 19.4445Z" fill="#3382DC"/>
<path d="M20.1345 2.43088C20.075 2.35759 20.0001 2.29838 19.915 2.25751C19.8299 2.21664 19.7369 2.19511 19.6425 2.19449H6.34085L6.75613 3.47227H18.8056L17.0997 11.1389H7.51641L4.59669 1.89421C4.56511 1.79612 4.51026 1.70712 4.43684 1.6348C4.36341 1.56249 4.27359 1.50901 4.17502 1.47893L1.55558 0.673935C1.47503 0.649184 1.3904 0.64054 1.30652 0.648497C1.22263 0.656453 1.14114 0.680854 1.06668 0.720306C0.916313 0.799983 0.803756 0.93613 0.75377 1.0988C0.703784 1.26146 0.720464 1.43732 0.800141 1.58769C0.879818 1.73806 1.01596 1.85062 1.17863 1.9006L3.47224 2.60338L6.40474 11.8673L5.35696 12.7234L5.27391 12.8064C5.01473 13.1051 4.86783 13.4848 4.8585 13.8801C4.84917 14.2755 4.978 14.6617 5.2228 14.9723C5.39693 15.184 5.61821 15.3521 5.86893 15.463C6.11965 15.574 6.39285 15.6247 6.66669 15.6112H17.3297C17.4992 15.6112 17.6617 15.5438 17.7815 15.424C17.9013 15.3042 17.9686 15.1417 17.9686 14.9723C17.9686 14.8028 17.9013 14.6403 17.7815 14.5205C17.6617 14.4007 17.4992 14.3334 17.3297 14.3334H6.56446C6.49089 14.3309 6.41922 14.3094 6.35635 14.2711C6.29349 14.2328 6.24156 14.1789 6.2056 14.1147C6.16963 14.0505 6.15083 13.9781 6.15102 13.9045C6.15121 13.8308 6.17039 13.7585 6.20669 13.6945L7.74641 12.4167H17.6109C17.7585 12.4203 17.9029 12.3726 18.0194 12.2818C18.1359 12.1909 18.2173 12.0625 18.2497 11.9184L20.275 2.97393C20.2944 2.87869 20.2919 2.78026 20.2675 2.68616C20.2432 2.59205 20.1977 2.50474 20.1345 2.43088Z" fill="#3382DC"/>
</svg>
