<svg width="46" height="44" viewBox="0 0 46 44" fill="none" xmlns="http://www.w3.org/2000/svg">
<path fill-rule="evenodd" clip-rule="evenodd" d="M23 40.3865C12.2092 29.7701 1.91667 20.6506 1.91667 12.7827C1.91667 5.51663 7.797 2.83329 12.0386 2.83329C14.5533 2.83329 19.9947 3.79354 23 11.3759C26.0475 3.77054 31.556 2.85246 33.9748 2.85246C38.8432 2.85246 44.0833 5.95938 44.0833 12.7827C44.0833 20.5816 34.2393 29.314 23 40.3865ZM33.9748 0.935793C29.7524 0.935793 25.4533 2.93296 23 7.14196C20.5371 2.91379 16.2495 0.916626 12.0386 0.916626C5.93783 0.916626 0 5.10838 0 12.7827C0 21.7163 10.6777 30.855 23 43.0833C35.3242 30.855 46 21.7163 46 12.7827C46 5.09496 40.0679 0.935793 33.9748 0.935793Z" fill="#005EB8"/>
</svg>
