<svg width="28" height="23" viewBox="0 0 28 23" fill="none" xmlns="http://www.w3.org/2000/svg">
<path d="M26.8125 18.625H16.3711C16.3281 19.4844 15.7266 20 14.9531 20H12.375C11.5586 20 10.9141 19.2695 10.957 18.625H0.6875C0.300781 18.625 0 18.9688 0 19.3125V20C0 21.5469 1.20312 22.75 2.75 22.75H24.75C26.2539 22.75 27.5 21.5469 27.5 20V19.3125C27.5 18.9688 27.1562 18.625 26.8125 18.625ZM24.75 2.8125C24.75 1.69531 23.8047 0.75 22.6875 0.75H4.8125C3.65234 0.75 2.75 1.69531 2.75 2.8125V17.25H24.75V2.8125ZM22 14.5H5.5V3.5H22V14.5Z" fill="#222222"/>
</svg>
