<?xml version="1.0" encoding="utf-8"?>
<!-- Svg Vector Icons : http://www.onlinewebfonts.com/icon -->
<!DOCTYPE svg PUBLIC "-//W3C//DTD SVG 1.1//EN" "http://www.w3.org/Graphics/SVG/1.1/DTD/svg11.dtd">
<svg version="1.1" xmlns="http://www.w3.org/2000/svg" xmlns:xlink="http://www.w3.org/1999/xlink" x="0px" y="0px" viewBox="0 0 1000 1000" enable-background="new 0 0 1000 1000" xml:space="preserve">
<metadata> Svg Vector Icons : http://www.onlinewebfonts.com/icon </metadata>
<g><g transform="translate(0.000000,512.000000) scale(0.100000,-0.100000)"><path d="M8408.9,4989.7c-69-13.4-193.5-59.4-277.8-101.5c-126.4-63.2-189.7-113-364-289.3l-210.7-210.7l858.2-856.3l856.3-858.2l210.7,210.7c176.2,174.3,226,237.5,289.3,364c128.4,260.5,164.8,538.3,92,699.2c-55.6,122.6-888.9,959.8-1021.1,1024.9C8730.8,5028,8606.2,5033.8,8408.9,4989.7z"/><path d="M7119.7,3951.4l-205-205l858.2-858.2l856.3-856.3l210.7,210.7l210.7,210.7l-852.5,852.5c-469.3,469.3-856.3,852.5-862.1,852.5S7232.7,4066.3,7119.7,3951.4z"/><path d="M4136.9,968.7L1579.5-1588.8l858.2-856.3l856.3-858.2L5855.3-742l2563.2,2563.2L7566,2673.6c-469.3,469.3-856.3,852.5-862.1,852.5S5543.1,2374.8,4136.9,968.7z"/><path d="M736.6-3288c-344.8-810.3-632.2-1477-636-1484.7c-3.8-9.6,11.5-7.7,36.4,1.9c114.9,46,2917.6,1250.9,2925.2,1258.6c9.6,9.6-1666.7,1693.5-1685.8,1693.5C1370.7-1818.7,1083.3-2479.6,736.6-3288z"/></g></g>
</svg>