<?xml version="1.0" encoding="utf-8"?>
<!-- Svg Vector Icons : http://www.onlinewebfonts.com/icon -->
<!DOCTYPE svg PUBLIC "-//W3C//DTD SVG 1.1//EN" "http://www.w3.org/Graphics/SVG/1.1/DTD/svg11.dtd">
<svg version="1.1" xmlns="http://www.w3.org/2000/svg" xmlns:xlink="http://www.w3.org/1999/xlink" x="0px" y="0px" viewBox="0 0 1000 1000" enable-background="new 0 0 1000 1000" xml:space="preserve">
<metadata> Svg Vector Icons : http://www.onlinewebfonts.com/icon </metadata>
<g><g transform="translate(0.000000,512.000000) scale(0.100000,-0.100000)"><path d="M4659,5028.1c-588.6-75-1015.6-346.2-1240.6-784.7c-171.2-334.7-211.6-557.8-213.5-1150.2l-1.9-425.1l-57.7-17.3c-125-36.5-173.1-286.6-117.3-592.4c65.4-346.2,213.5-661.6,398.1-840.5c59.6-59.6,115.4-128.9,123.1-153.9c67.3-213.5,261.6-575.1,415.5-779c53.9-69.2,82.7-117.3,61.5-107.7c-38.5,21.2-221.2,209.7-296.2,309.7l-50,63.5l-15.4-446.2l-13.5-446.2l-234.6-111.6c-317.4-150-896.3-394.3-1281-538.5c-575.1-217.3-930.9-405.8-1159.8-613.6C558.3-1990.4,225.6-2740.5,114-3554.1c-21.2-150-19.2-178.9,11.5-255.8c21.2-59.6,55.8-103.9,103.9-134.6c80.8-51.9,1152.1-369.3,1723.4-509.7c780.9-192.3,1427.2-284.7,2298.5-327c1236.7-59.6,2419.6,25,3441,242.3c488.5,105.8,1911.8,507.8,2060,580.9c42.3,23.1,84.6,67.3,111.6,121.2c53.9,102,50,200-26.9,575.1c-173.1,840.5-561.6,1525.2-1042.5,1836.8c-200,128.9-511.6,273.1-955.9,442.4C7432.6-828.7,7121-695.9,6645.9-476.7L6357.4-344L6342-76.6c-7.7,146.2-19.2,348.1-25,444.3l-11.6,176.9l-71.2-90.4c-76.9-94.3-278.9-292.4-300-292.4c-7.7,0,13.5,30.8,44.2,67.3C6120.8,390.8,6317,735,6417,1000.5c30.8,84.6,75,148.1,155.8,230.8c373.1,375.1,552,1302.1,275,1419.5l-59.6,25l-7.7,402c-11.5,611.6-73.1,909.8-246.2,1217.5c-205.8,365.4-559.7,604-1042.5,704C5309.1,5035.8,4855.2,5053.1,4659,5028.1z"/></g></g>
</svg>